<svg width="278" height="255" viewBox="0 0 278 255" fill="none" xmlns="http://www.w3.org/2000/svg">
<path d="M136.844 254.8C207.371 254.8 264.544 197.761 264.544 127.4C264.544 57.0389 207.371 0 136.844 0C66.317 0 9.1438 57.0389 9.1438 127.4C9.1438 197.761 66.317 254.8 136.844 254.8Z" fill="#030609"/>
<path d="M85.4438 22.1999C87.0455 22.1999 88.3438 20.9015 88.3438 19.2999C88.3438 17.6983 87.0455 16.3999 85.4438 16.3999C83.8422 16.3999 82.5438 17.6983 82.5438 19.2999C82.5438 20.9015 83.8422 22.1999 85.4438 22.1999Z" fill="#F6F5F3"/>
<path d="M208.144 42.0998C209.745 42.0998 211.044 40.8014 211.044 39.1998C211.044 37.5982 209.745 36.2998 208.144 36.2998C206.542 36.2998 205.244 37.5982 205.244 39.1998C205.244 40.8014 206.542 42.0998 208.144 42.0998Z" fill="#F6F5F3"/>
<path d="M226.644 110.6C228.245 110.6 229.544 109.301 229.544 107.7C229.544 106.098 228.245 104.8 226.644 104.8C225.042 104.8 223.744 106.098 223.744 107.7C223.744 109.301 225.042 110.6 226.644 110.6Z" fill="#F6F5F3"/>
<path d="M211.044 182.1C212.645 182.1 213.944 180.801 213.944 179.2C213.944 177.598 212.645 176.3 211.044 176.3C209.442 176.3 208.144 177.598 208.144 179.2C208.144 180.801 209.442 182.1 211.044 182.1Z" fill="#F6F5F3"/>
<path d="M202.244 218.1C203.845 218.1 205.144 216.801 205.144 215.2C205.144 213.598 203.845 212.3 202.244 212.3C200.642 212.3 199.344 213.598 199.344 215.2C199.344 216.801 200.642 218.1 202.244 218.1Z" fill="#F6F5F3"/>
<path d="M144.744 230.3C146.345 230.3 147.644 229.001 147.644 227.4C147.644 225.798 146.345 224.5 144.744 224.5C143.142 224.5 141.844 225.798 141.844 227.4C141.844 229.001 143.142 230.3 144.744 230.3Z" fill="#F6F5F3"/>
<path d="M111.844 206.1C113.445 206.1 114.744 204.801 114.744 203.2C114.744 201.598 113.445 200.3 111.844 200.3C110.242 200.3 108.944 201.598 108.944 203.2C108.944 204.801 110.242 206.1 111.844 206.1Z" fill="#F6F5F3"/>
<path d="M14.1438 112.1C15.7454 112.1 17.0438 110.801 17.0438 109.2C17.0438 107.598 15.7454 106.3 14.1438 106.3C12.5421 106.3 11.2438 107.598 11.2438 109.2C11.2438 110.801 12.5421 112.1 14.1438 112.1Z" fill="#F6F5F3"/>
<path d="M48.1438 49.9997C49.7454 49.9997 51.0438 48.7013 51.0438 47.0997C51.0438 45.4981 49.7454 44.1997 48.1438 44.1997C46.5421 44.1997 45.2438 45.4981 45.2438 47.0997C45.2438 48.7013 46.5421 49.9997 48.1438 49.9997Z" fill="#F6F5F3"/>
<path d="M235.944 47.0999C245.544 58.7999 252.944 72.1999 257.944 86.7999C253.444 91.2999 247.244 94.1999 240.344 94.1999C226.944 94.1999 216.144 83.4998 216.144 70.3998C216.144 58.7998 224.644 49.0999 235.944 47.0999Z" fill="#BA536A"/>
<path d="M242.544 92.8998C229.544 92.8998 218.944 82.2999 218.944 69.1999C218.944 58.5999 225.944 49.5999 235.644 46.5999C245.344 58.4999 253.044 72.1999 258.044 87.0999C253.844 90.6999 248.444 92.8998 242.544 92.8998Z" fill="#FF6B84"/>
<path d="M144.744 246.7C144.744 249.5 144.144 252.1 143.244 254.6C141.177 254.733 139.044 254.8 136.844 254.8C122.644 254.8 108.844 252.4 96.0437 248.1C96.0437 247.6 95.9437 247.1 95.9437 246.7C95.9437 233.6 106.844 222.9 120.344 222.9C133.844 222.9 144.744 233.6 144.744 246.7Z" fill="#124899"/>
<path d="M145.644 249.2C145.644 251 145.444 252.767 145.044 254.5C142.377 254.7 139.644 254.8 136.844 254.8C123.344 254.8 110.344 252.7 98.1437 248.8C98.3437 235.4 108.944 224.5 121.844 224.5C134.944 224.5 145.644 235.6 145.644 249.2Z" fill="#4CBAB6"/>
<path d="M205.144 117.7C211.044 124 222.244 134.4 232.744 141.2C254.544 155.1 253.544 152.9 258.844 155.2L250.044 183.1C236.71 173.367 225.877 166.067 217.544 161.2C207.344 155.133 195.744 149.167 182.744 143.3L205.144 117.7Z" fill="#D8DEDC"/>
<path d="M207.344 119.9C207.744 120.367 209.41 122 212.344 124.8C209.677 130.733 207.277 135.133 205.144 138C200.144 144.8 199.844 144.5 195.144 149.2L187.244 145.4L207.344 119.9Z" fill="#839091"/>
<path d="M242.844 196.2C235.91 197.533 232.477 196.4 232.544 192.8C232.544 184.4 237.644 185 251.144 182.6L242.844 196.2Z" fill="#9CA9A8"/>
<path d="M234.844 190.9C234.577 189.3 235.31 187.833 237.044 186.5C238.71 185.233 241.977 184.567 246.844 184.5C242.31 185.9 239.51 187.033 238.444 187.9C237.444 188.767 236.244 189.767 234.844 190.9Z" fill="#DAE0DF"/>
<path d="M251.844 156.9C247.71 150.3 247.11 146.467 250.044 145.4C254.544 143.8 261.244 144.4 266.144 146.4C272.344 148.9 277.844 153.3 277.844 156.9C277.844 160.033 275.244 162.133 270.044 163.2C273.91 167.8 274.91 171.133 273.044 173.2C271.244 175.267 267.777 176 262.644 175.4C267.644 180.533 268.977 184.167 266.644 186.3C264.044 188.6 254.544 187.9 248.544 185.4C243.344 183.3 234.344 172.8 237.044 169.6C238.777 167.467 242.544 166.4 248.344 166.4C243.01 163.333 241.344 160.833 243.344 158.9C245.344 157.033 248.177 156.367 251.844 156.9Z" fill="#030609"/>
<path d="M252.344 148.9C255.244 147.8 260.644 149.4 264.644 150.7C268.544 151.9 275.144 156.4 273.644 158.7C272.644 160.3 270.377 161.267 266.844 161.6C270.977 167.533 271.81 170.867 269.344 171.6C265.644 172.6 257.544 172.4 258.044 172.9C258.544 173.4 269.144 183.1 264.544 185.4C260.044 187.7 253.644 186.2 248.844 183.6C243.144 180.6 238.444 173.6 240.344 171.6C241.077 170.8 244.81 169.9 251.544 168.9C246.21 164.9 243.744 162.367 244.144 161.3C244.844 159.6 247.144 158.7 250.544 158.7C252.744 158.7 254.91 158.7 257.044 158.7C251.11 153.167 249.544 149.9 252.344 148.9Z" fill="#9CA9A8"/>
<path d="M256.544 155.2C253.41 152.467 252.41 150.867 253.544 150.4C254.61 150 256.444 150.1 259.044 150.7C257.444 150.7 256.444 151 256.044 151.6C255.644 152.2 255.81 153.4 256.544 155.2Z" fill="#DAE0DF"/>
<path d="M248.844 161.4C248.31 162.6 248.544 163.767 249.544 164.9C246.344 163.5 245.11 162.234 245.844 161.1C246.577 159.967 249.244 159.567 253.844 159.9C251.044 159.7 249.377 160.2 248.844 161.4Z" fill="#DAE0DF"/>
<path d="M244.544 173.8C244.077 174.867 244.377 176.667 245.444 179.2C242.11 176.267 241.077 174.067 242.344 172.6C243.61 171.067 245.777 170.467 248.844 170.8C246.377 171.667 244.944 172.667 244.544 173.8Z" fill="#DAE0DF"/>
<path d="M180.844 148.9C182.777 154.833 184.777 162.667 186.844 172.4C190.544 189.9 189.744 209.3 182.744 212.3C179.944 213.5 177.344 215.9 166.644 212.3C159.444 209.9 144.51 200.167 121.844 183.1L180.844 148.9Z" fill="#D8DEDC"/>
<path d="M182.744 155.2C179.544 166.133 170.444 174.9 155.444 181.5C148.11 184.767 139.11 186.9 128.444 187.9L118.244 180.4L164.744 155.2H182.744Z" fill="#687476"/>
<path d="M74.0437 99.2C66.5771 100.067 60.7437 100.733 56.5437 101.2C54.6104 101.4 51.7771 102.367 48.0437 104.1C44.8437 99.7666 42.6104 95.5666 41.3437 91.5C39.8437 86.9 38.3437 76.0999 41.5437 69.7999C43.7437 65.5999 55.9104 60.7333 78.0437 55.2L74.0437 99.2Z" fill="#D8DEDC"/>
<path d="M82.5437 53.7L79.0437 97.6L55.1437 101.5C54.1437 97.1666 53.7104 93.5666 53.8437 90.7C54.6437 76.5666 56.3104 66.5999 58.8437 60.7999L82.5437 53.7Z" fill="#839091"/>
<path d="M189.144 137.5L182.744 155.2C170.344 169.267 155.777 178.733 139.044 183.6C122.244 188.467 104.11 189.067 84.6438 185.4L15.8438 152.9C16.5771 146.967 18.6104 141.233 21.9437 135.7C26.9437 127.4 37.8437 106.4 50.4437 102.7C58.8438 100.167 68.0437 98.9999 78.0437 99.1999L189.144 137.5Z" fill="#030609"/>
<path d="M174.844 148.9C159.51 174.9 132.744 186.133 94.5437 182.6C77.9437 181 52.6104 170.267 18.5437 150.4C22.2104 145.667 24.377 141.933 25.0437 139.2C26.1437 135.2 27.4437 132 31.5437 129.7C35.6437 127.3 40.5437 122.8 43.2437 120.9C48.0437 117.4 47.8437 111.2 50.4437 110.5C54.7104 109.5 62.7437 108.567 74.5437 107.7L174.844 148.9Z" fill="#D8DEDC"/>
<path d="M113.844 150.7H177.344C173.01 156.833 166.044 162.9 156.444 168.9C146.844 174.9 140.044 177.9 136.044 177.9C132.71 177.9 127.444 175.833 120.244 171.7C110.644 166.167 104.51 161.233 101.844 156.9L113.844 150.7Z" fill="#687476"/>
<path d="M79.8437 106.3L94.6437 136.4L74.5437 143.3C68.7437 135.633 65.0104 130.333 63.3437 127.4C61.677 124.467 59.077 118.533 55.5437 109.6L79.8437 106.3Z" fill="#839091"/>
<path d="M142.144 166.5C183.013 166.5 216.144 132.563 216.144 90.6999C216.144 48.8367 183.013 14.8999 142.144 14.8999C101.275 14.8999 68.1438 48.8367 68.1438 90.6999C68.1438 132.563 101.275 166.5 142.144 166.5Z" fill="#030609"/>
<path d="M143.444 158.8C180.778 158.8 211.044 127.773 211.044 89.5C211.044 51.2266 180.778 20.2 143.444 20.2C106.109 20.2 75.8438 51.2266 75.8438 89.5C75.8438 127.773 106.109 158.8 143.444 158.8Z" fill="#D8DEDC"/>
<path d="M172.344 29.3999C181.41 33.5332 188.244 39.4332 192.844 47.0999C192.31 49.0332 185.477 51.1332 172.344 53.3998C167.677 54.1998 163.41 54.7999 159.544 55.1999C159.61 49.7332 159.044 44.5332 157.844 39.5999C155.977 32.1332 153.977 27.5665 151.844 25.8999C158.444 25.0332 165.277 26.1999 172.344 29.3999Z" fill="white"/>
<path d="M85.4438 49.9998C108.577 56.5998 129.81 59.5664 149.144 58.8997C168.477 58.2331 186.177 55.2664 202.244 49.9998C208.777 64.3998 212.677 75.2664 213.944 82.5998C215.21 89.9331 214.244 99.2331 211.044 110.5C194.71 127.166 172.144 134.8 143.344 133.4C107.544 131.666 84.7105 122.133 74.8438 104.8C72.2438 89.3331 72.1438 77.6664 74.5438 69.7998C76.9438 61.8664 80.5771 55.2664 85.4438 49.9998Z" fill="#030609"/>
<path d="M96.7438 75.5997C102.444 76.9997 112.544 75.1997 116.844 76.8997C121.044 78.6997 128.544 89.6997 133.144 91.2997C137.744 92.7997 144.844 85.8997 147.144 86.2997C149.444 86.5997 149.044 90.6997 152.044 92.8997C153.244 93.7997 155.244 94.7997 159.344 95.8997C162.41 96.7663 165.577 97.7663 168.844 98.8997C148.51 110.566 128.544 114.433 108.944 110.5C89.3438 106.633 78.8771 102.233 77.5438 97.2997C77.0771 92.633 77.2438 86.933 78.0438 80.1997C78.7105 75.0663 79.7438 70.633 81.1438 66.8997C87.8105 71.7663 93.0105 74.6663 96.7438 75.5997Z" fill="#173D3E"/>
<path d="M77.3438 91.6997C80.0771 91.0997 82.5105 91.4997 84.6438 92.8997C87.7438 94.9997 99.3438 102.2 103.344 103.7C107.344 105.2 128.244 103.5 130.144 102.2C131.344 101.266 133.244 100.5 135.844 99.8997C139.177 102.633 141.777 103.9 143.644 103.7C146.344 103.3 149.644 104.9 153.544 102.4C157.544 99.8997 159.544 96.7997 162.344 96.7997C165.044 96.7997 168.244 98.5997 170.344 98.8997C176.844 99.9997 178.544 97.3997 181.344 98.3997C184.144 99.3997 185.544 99.8997 190.144 99.6997C193.21 99.4997 199.177 98.8664 208.044 97.7997C209.644 102.266 204.51 109.133 192.644 118.4C186.344 123.3 173.344 130.4 137.644 130.4C131.844 130.4 109.744 129.3 91.6438 115.9C80.2438 107.566 75.4771 99.4997 77.3438 91.6997Z" fill="#276A69"/>
<path d="M122.844 103.5C127.31 103.033 131.41 101.066 135.144 97.5996L136.844 100.3C136.977 102.566 136.077 104.566 134.144 106.3C131.244 108.9 126.844 110.9 121.844 110.5C118.577 110.3 113.91 108.166 107.844 104.1C113.244 104.233 118.244 104.033 122.844 103.5Z" fill="#388688"/>
<path d="M150.644 102.6C154.244 102 157.344 99.8997 159.844 97.5997C161.51 96.0664 163.744 96.0664 166.544 97.5997C165.544 98.333 164.544 99.033 163.544 99.6997C162.144 100.7 160.944 100.8 158.344 101.9C155.744 103 151.744 106.3 144.544 106.3C141.544 106.3 139.41 104.7 138.144 101.5C142.41 102.966 146.544 103.333 150.544 102.6H150.644Z" fill="#388688"/>
<g opacity="0.4">
<path d="M159.344 60.8997L179.344 58.3997C183.544 72.6663 184.177 94.733 181.244 124.6C177.177 125.866 173.61 126.9 170.544 127.7C165.944 128.9 161.61 129.566 157.544 129.7C160.077 122.033 161.177 110.2 160.844 94.1997C160.644 82.333 160.144 71.233 159.344 60.8997Z" fill="white"/>
<path d="M199.344 54.8997C201.744 57.5997 206.844 65.7997 208.144 74.8997C210.044 89.2997 209.444 96.3997 207.544 102.7C205.41 106.7 202.91 109.8 200.044 112C197.177 114.266 194.61 116.466 192.344 118.6C195.544 113.533 196.81 103.866 196.144 89.5997C195.477 74.4663 193.61 63.4663 190.544 56.5997L199.344 54.8997Z" fill="white"/>
</g>
<path d="M74.5437 142.9C90.277 127.567 102.71 121 111.844 123.2C127.144 126.8 126.744 137.1 123.244 147.6C120.91 154.533 108.044 160.3 84.6437 164.9L74.5437 142.9Z" fill="#030609"/>
<path d="M78.1438 146.2C82.1438 141.533 89.3771 137.7 99.8438 134.7C115.644 130.2 118.144 139 118.244 141.9C118.444 144.9 116.844 149.1 111.844 150.7C108.51 151.767 100.277 154.5 87.1438 158.9L78.1438 146.2Z" fill="#9CA9A8"/>
<path d="M78.1438 144.9L82.3438 142.6C86.2771 147.2 88.9438 149.467 90.3438 149.4C94.5438 149.3 99.6438 149.8 99.8438 148.9C100.044 148.3 100.71 146.2 101.844 142.6C101.71 145.4 101.71 147.1 101.844 147.7C102.044 148.6 110.944 147.5 113.144 146.4C115.144 145.4 116.844 143.9 118.244 141.9C118.444 145.1 117.71 147.267 116.044 148.4C112.444 151 102.81 154.5 87.1438 158.9L78.1438 144.9Z" fill="#515C5C"/>
<path d="M105.144 136.1C106.144 135.8 111.344 135.4 112.844 136.1C113.844 136.567 114.477 137.6 114.744 139.2C113.944 138.467 112.977 137.767 111.844 137.1C110.91 136.567 108.677 136.233 105.144 136.1Z" fill="#DAE0DF"/>
<path d="M100.644 143.9C100.644 143.9 100.144 145.3 99.1438 148.1C98.8771 148.967 96.7771 149.167 92.8438 148.7C95.3104 148.5 97.0771 147.9 98.1438 146.9C99.2771 145.967 100.11 144.967 100.644 143.9Z" fill="#DAE0DF"/>
<path d="M57.8438 227.4C57.7438 230.2 57.8437 234.9 54.5437 236.7C51.3437 238.4 23.5438 239.9 18.0438 233.9C12.6438 227.9 2.64375 208.4 0.84375 197.4C-0.35625 190.1 -1.15625 176.9 4.84375 175.2C8.84375 174 12.9104 174.367 17.0438 176.3C13.1104 170.367 11.1437 164.9 11.1437 159.9C11.1437 156.3 12.4438 150.4 17.0438 149.4C20.1104 148.733 26.3771 149.233 35.8438 150.9C33.8438 143.7 33.8438 138.7 35.8438 135.9C41.8438 127.4 58.3438 128.7 62.8438 129.9C67.3438 131.2 102.644 166.9 104.844 176.3C106.244 182 102.544 197.7 98.1438 200.3C96.2771 201.433 92.0437 202.4 85.4437 203.2C89.6437 211.2 89.6437 216.6 85.4437 219.4C81.1771 222.267 71.9771 222.267 57.8438 219.4C57.8438 222.933 57.8438 225.6 57.8438 227.4Z" fill="#030609"/>
<path d="M38.8437 152.9C37.6437 146.033 38.1437 141.866 40.3437 140.4C43.5437 138.1 52.3437 137.7 56.8437 138.2C61.3437 138.7 61.9437 146.2 68.3437 150.4C79.3437 157.7 92.3437 175.7 93.8437 179.2C95.3437 182.7 94.1437 185.2 93.8437 187.7C93.5437 190.2 81.3437 194.3 77.8437 191.4C76.4437 190.3 70.6437 183 65.8437 179.2C61.177 175.4 56.7437 172.633 52.5437 170.9C59.5437 178.7 63.477 183.466 64.3437 185.2C65.6437 187.8 68.4437 195.4 71.3437 197.4C74.2437 199.4 81.4437 205.2 82.5437 206C83.6437 206.9 84.1437 214.9 83.6437 216.4C81.8437 218.4 68.3437 211.8 66.3437 211.4C64.3437 211.1 59.1437 210.2 54.6437 208.9C51.577 208.1 44.1437 201.1 32.3437 187.9C35.077 196.766 37.677 202.8 40.1437 206C43.7437 210.8 46.1437 218 49.3437 218C53.8437 218 53.1437 227.2 51.0437 228.9C48.8437 230.7 32.7437 230.3 26.3437 227.4C21.6437 225.3 1.8437 180.9 7.3437 179.2C14.3437 176.9 19.1437 178.2 21.5437 180.5C23.077 182.033 24.677 183.6 26.3437 185.2C19.477 166.133 17.977 156.366 21.8437 155.9C26.3104 155.366 31.2437 154.966 36.6437 154.7L38.1437 159.4L38.6437 155.2L41.8437 156.2L38.8437 152.9Z" fill="#9CA9A8"/>
<path d="M12.2437 178.1C10.2437 180.633 9.87703 183.666 11.1437 187.2C13.1437 192.4 16.5437 202.2 18.8437 206C21.1437 209.9 28.0437 222.4 29.6437 224.5C30.6437 225.966 32.0437 227.566 33.8437 229.3C30.977 229.033 28.477 228.4 26.3437 227.4C22.2437 225.6 10.1437 202.3 7.34369 188.9C6.04369 182.6 5.84369 180 7.34369 179.2C9.87703 177.866 11.5104 177.5 12.2437 178.1Z" fill="#515C5C"/>
<path d="M33.8438 229.3C38.5104 226.3 41.4437 224.166 42.6437 222.9C44.3104 221.033 46.0437 219.233 47.8438 217.5C50.5104 217.766 52.1771 218.4 52.8438 219.4C53.8438 220.9 52.4438 228.3 51.0438 228.9C48.6438 230 45.9437 230.2 44.1437 230.3C40.2771 230.433 36.8438 230.1 33.8438 229.3Z" fill="#515C5C"/>
<path d="M35.2437 196.3C36.1437 199.3 38.9437 203.9 41.3437 207.9C43.8771 212.166 45.5771 214.933 46.4437 216.2C38.2437 209.2 33.5437 203.533 32.3437 199.2C31.1437 194.866 31.1437 191.1 32.3437 187.9C32.8771 188.433 33.8437 191.233 35.2437 196.3Z" fill="#515C5C"/>
<path d="M82.5437 206C84.1437 208.9 84.8437 213.7 83.5437 216.4C82.7437 218.266 77.0104 216.6 66.3438 211.4C67.9438 210.066 69.3437 208.266 70.5437 206C73.7437 200.3 73.7437 200.3 74.0437 199.4C78.5771 201.933 81.4104 204.133 82.5437 206Z" fill="#515C5C"/>
<path d="M62.5437 182.6C65.077 186.133 67.577 190.666 70.0437 196.2C63.7104 192.2 59.0437 187.666 56.0437 182.6C53.7104 178.533 52.0437 173.966 51.0437 168.9C56.777 175.366 60.6104 179.933 62.5437 182.6Z" fill="#515C5C"/>
<path d="M74.5437 187.9C77.7437 187.166 80.977 185.866 84.2437 184C88.5104 181.6 91.5104 179.6 93.2437 178C95.0437 180.666 95.2437 183.9 93.8437 187.7C92.4437 191.2 82.5437 194.9 77.8437 191.4C75.8437 189.933 74.7437 188.766 74.5437 187.9Z" fill="#515C5C"/>
<path d="M43.3437 150.7C42.4771 144.1 44.0771 140.333 48.1437 139.4C52.1437 138.533 56.2771 139.966 60.5437 143.7C56.0104 142.5 52.6437 142.066 50.4437 142.4C48.3104 142.733 45.9437 145.5 43.3437 150.7Z" fill="#DAE0DF"/>
<path d="M25.8438 161.7C25.1771 163.7 25.5105 169.533 26.8438 179.2C21.6438 166.8 20.3771 159.8 23.0438 158.2C26.2438 156.266 29.8438 156.266 33.8438 158.2C29.1771 158.533 26.5105 159.7 25.8438 161.7Z" fill="#DAE0DF"/>
<path d="M15.6437 182C14.5104 182.533 13.6437 184.5 13.0437 187.9C11.3771 182.1 11.7104 179.2 14.0437 179.2C17.7104 179.133 20.3437 180.733 21.9437 184C19.8104 181.666 17.6771 181 15.5437 182H15.6437Z" fill="#DAE0DF"/>
</svg>
